<?xml version="1.0"?>
<svg width="512" height="512" xmlns="http://www.w3.org/2000/svg" xmlns:svg="http://www.w3.org/2000/svg" version="1.0">
 <g class="layer">
  <title>Layer 1</title>
  <path d="m393.8,23.3c-13.2,8.2 -19.5,13.3 -33.3,27.2c-15.5,15.4 -25.9,28.4 -37.8,47.4c-12.4,19.8 -28,52.9 -35.1,74.8c-1.7,5.1 -1.8,5.2 -6.4,5.8c-33.1,4.3 -66.7,17.6 -91.8,36.2c-11,8.3 -28,25.1 -36.3,36.1c-24,31.7 -39.3,72 -45.2,118.7c-1.9,14.9 -1.6,54.1 0.5,70c1.7,12.3 5.4,32.1 7.6,39.4l0.9,3.3l-5.6,-0.7c-31.9,-4 -60.1,-24.3 -75.2,-54.2c-7.1,-14.2 -10.6,-34.1 -9,-51.2c2.1,-22.2 10.4,-40.6 26.2,-57.9c13.7,-15.1 22.7,-31.2 27.4,-48.7c2.4,-9 2.7,-11.8 2.7,-27s-0.3,-18 -2.7,-26.7c-7.7,-28.9 -26.6,-53.3 -52,-67.3c-7.3,-4 -8.7,-4.2 -11.2,-1.5c-2.7,3 -1.3,6.6 3.8,9.1c18.8,9.6 36.4,28.6 44.5,48.1c5.5,13.1 7.5,23.6 7.5,38.3c0,26.1 -8.3,47 -26.8,67.5c-9.5,10.6 -14.8,18.4 -20.1,29.4c-18.9,39.9 -11.3,87.3 19.3,119.7c9.2,9.7 18,16.1 30.8,22.4c12.2,6 21.7,8.9 34.5,10.5c11.7,1.4 262.4,1.4 265.1,0c1.5,-0.9 1.9,-2.2 1.9,-6.8c0,-21.9 -16.5,-42.9 -39,-49.7c-3.6,-1 -11.2,-1.8 -21.7,-2.2l-16.1,-0.6l4.6,-3.7c8.3,-6.5 16.3,-18.6 19.3,-29c0.7,-2.5 1.5,-4.9 1.9,-5.3c0.9,-1 12,7.2 24.1,17.9c16.3,14.4 39.6,41.2 57.6,66.3c4.2,5.8 8.5,11.4 9.6,12.3c1.7,1.6 4.3,1.8 22.3,1.8c19.4,0 20.5,-0.1 22.5,-2.1c1.8,-1.8 2,-2.8 1.5,-7.1c-2.2,-16.2 -14,-29.6 -29.2,-32.8l-5,-1.1l-16.7,-36.3l-16.6,-36.3l3.5,-9.9c4.4,-12.2 7,-23 8.8,-36.5c2.2,-16.2 2.7,-24.4 3.6,-71.4c0.8,-36.2 1.3,-45.8 2.8,-54.5c3,-16.1 9.6,-33.5 12.5,-32.5c0.6,0.2 7.6,2.2 15.4,4.5c14.7,4.2 20.6,4.8 26.4,2.8c4.5,-1.5 13.6,-7.2 17.7,-11.2c9,-8.4 10.7,-22.7 3.9,-32.7c-2,-2.9 -5.1,-5.5 -14.6,-12c-1.5,-1 -3.2,-5.2 -6,-14.9c-2.1,-7.4 -4.4,-14.7 -4.9,-16.1c-1.9,-4.7 -7,-9.5 -13.1,-12.3c-6,-2.7 -6,-2.7 -7.1,-8.4c-1.8,-8.6 -7.4,-25.1 -10.9,-32c-2.7,-5.3 -3.5,-6.2 -5.9,-6.2c-1.5,0 -5.3,1.6 -8.5,3.5c-5.1,3.1 -5.8,3.3 -6.4,1.7c-2.7,-7.7 -7.9,-18.4 -9.4,-19.2c-2.8,-1.5 -3.9,-1.2 -11.1,3.3zm11.7,22.6c1.9,5.8 4.4,14.6 5.4,19.5c1.1,4.9 2.6,9.5 3.3,10.2c0.7,0.8 9.3,4.5 19.1,8.3c9.8,3.8 18.7,7.7 19.9,8.7c2.9,2.7 4.2,5.6 7.2,16.4c6.3,22 5,19.5 12.9,24.9c4,2.7 8,5.8 9,6.9c4.2,4.6 3.9,14.1 -0.5,18.9c-3.4,3.8 -13.6,10.2 -17.2,10.9c-2.4,0.4 -12.4,-2.1 -38.1,-9.5c-32.6,-9.4 -35,-10 -37.2,-8.6c-3,2 -3,6 0,7.9c1.2,0.8 7.4,2.9 13.7,4.7c6.3,1.8 11.9,3.5 12.3,3.9c0.4,0.4 -0.6,3.8 -2.2,7.6c-8.3,19.4 -10,34.1 -11.1,92.4c-1.1,57.5 -2.8,71.7 -11,94c-1.7,4.7 -3.6,9.9 -4.2,11.6c-1,2.9 0.2,5.9 17.2,43c10.1,22 18.7,40.4 19.2,41.1c0.5,0.6 3.2,1.4 6,1.8c11.6,1.6 19.6,8 23.8,19l1,2.5l-29.8,0l-11.6,-15.4c-28.1,-37.5 -53.5,-63.7 -77.2,-79.7c-7,-4.7 -7.4,-5.2 -7.4,-8.8c0,-6.1 -3.7,-18.6 -7.7,-26.4c-5,-9.6 -15.4,-20 -25,-25c-8.2,-4.3 -20.4,-7.7 -27.4,-7.7c-4.1,0 -5.1,0.4 -6.5,2.5c-1.5,2.3 -1.5,2.7 0,4.9c1.2,1.9 2.8,2.6 6.3,3.1c14.7,1.8 23.7,5.5 32.4,13.3c18.9,17 22.8,45.6 9.1,66.7c-8.9,13.7 -25.3,23.5 -39.4,23.5c-3.9,0 -5.4,0.5 -7.3,2.5c-3,2.9 -3.1,3.9 -0.5,6.5c1.9,1.9 3.3,2 34.8,2c36.4,0 40.4,0.5 50.1,6.3c9.6,5.8 17.6,16.8 20,27.4l0.9,4.3l-240.4,0l-2.8,-11.7c-5.8,-24.6 -7,-36.3 -7.1,-67.3c0,-29.9 0.5,-36.1 5.1,-58.2c18.2,-87.3 77.7,-145.3 160.1,-155.9c6.1,-0.8 9.7,-1.7 10.6,-2.8c0.7,-0.9 3.1,-6.6 5.2,-12.6c16.3,-47.4 40.3,-87.2 70.2,-116.7c10,-9.9 18.2,-16.8 26.3,-22c5.6,-3.6 5.6,-3.5 10.5,11.1zm27.2,17.4c1.4,4.8 2.3,9 2,9.3c-0.2,0.3 -3.1,-0.6 -6.3,-1.9l-5.9,-2.3l-1.7,-6.5c-2.4,-9.6 -2.3,-10.5 2,-13.4l3.7,-2.5l1.8,4.2c1,2.4 3,8.3 4.4,13.1z" fill="#ffffff" id="svg_1"/>
 </g>

</svg>